<svg width="130" height="30" viewBox="0 0 130 30" fill="none" xmlns="http://www.w3.org/2000/svg">
<path d="M48.0714 18.8342V12.1646H50.121V11.1343H44.7477V12.1646H46.8084V18.8342H48.0714ZM52.445 18.8342V15.4218C52.445 14.8753 52.5835 14.4561 52.8605 14.1644C53.1374 13.8726 53.5123 13.7268 53.985 13.7268C54.4577 13.7268 54.8307 13.8726 55.1039 14.1644C55.3772 14.4561 55.5139 14.8753 55.5139 15.4218V18.8342H56.7658V15.2335C56.7658 14.6796 56.6605 14.2069 56.45 13.8154C56.2395 13.424 55.9515 13.1285 55.5859 12.9291C55.2203 12.7297 54.8048 12.63 54.3395 12.63C53.948 12.63 53.588 12.7001 53.2593 12.8405C52.9306 12.9808 52.6592 13.1802 52.445 13.4387V10.6358H51.182V18.8342H52.445ZM60.7849 18.9339C61.5013 18.9339 62.1014 18.7548 62.5852 18.3965C63.069 18.0383 63.4032 17.5785 63.5878 17.0172H62.2251C61.9445 17.5859 61.4644 17.8703 60.7849 17.8703C60.3122 17.8703 59.9133 17.7226 59.5883 17.4271C59.2634 17.1317 59.0824 16.7402 59.0455 16.2528H63.7097C63.7392 16.0681 63.754 15.8613 63.754 15.6323C63.754 15.0415 63.6285 14.5189 63.3773 14.0647C63.1262 13.6104 62.7754 13.2578 62.3248 13.0066C61.8743 12.7555 61.361 12.63 60.7849 12.63C60.1866 12.63 59.6567 12.7592 59.195 13.0177C58.7334 13.2762 58.3752 13.6437 58.1204 14.1201C57.8656 14.5965 57.7382 15.1486 57.7382 15.7764C57.7382 16.4042 57.8693 16.9563 58.1315 17.4327C58.3937 17.9091 58.7556 18.2784 59.2172 18.5406C59.6788 18.8028 60.2014 18.9339 60.7849 18.9339ZM62.4356 15.2335H59.0566C59.1156 14.7608 59.3003 14.386 59.6105 14.109C59.9207 13.832 60.2937 13.6935 60.7295 13.6935C61.2096 13.6935 61.6121 13.8339 61.9371 14.1145C62.2621 14.3952 62.4282 14.7682 62.4356 15.2335ZM67.3189 18.9117C67.8654 18.9117 68.34 18.8065 68.7425 18.596C69.145 18.3855 69.4516 18.1066 69.6621 17.7595C69.8726 17.4124 69.9778 17.0431 69.9778 16.6516C69.9778 16.1641 69.8652 15.7745 69.6399 15.4828C69.4146 15.191 69.1414 14.975 68.8201 14.8347C68.4988 14.6943 68.0833 14.554 67.5737 14.4137C67.1896 14.3103 66.8868 14.2142 66.6652 14.1256C66.4436 14.037 66.2608 13.917 66.1168 13.7656C65.9728 13.6141 65.9008 13.4203 65.9008 13.1839C65.9008 12.8368 66.0152 12.5709 66.2442 12.3862C66.4732 12.2016 66.7686 12.1093 67.1305 12.1093C67.5294 12.1093 67.8507 12.209 68.0944 12.4084C68.3381 12.6078 68.4711 12.8478 68.4932 13.1285H69.8892C69.8375 12.4786 69.5734 11.9671 69.097 11.5941C68.6206 11.2211 68.0095 11.0346 67.2635 11.0346C66.7391 11.0346 66.2775 11.1232 65.8786 11.3005C65.4798 11.4778 65.1696 11.7326 64.948 12.0649C64.7264 12.3973 64.6156 12.7851 64.6156 13.2282C64.6156 13.7083 64.7264 14.0924 64.948 14.3804C65.1696 14.6685 65.4373 14.8808 65.7512 15.0175C66.0651 15.1541 66.4732 15.2889 66.9754 15.4218C67.3743 15.5253 67.6863 15.6213 67.9116 15.7099C68.1369 15.7985 68.3252 15.9241 68.4766 16.0866C68.628 16.2491 68.7037 16.4596 68.7037 16.7181C68.7037 17.0505 68.5819 17.3219 68.3381 17.5324C68.0944 17.7429 67.7546 17.8481 67.3189 17.8481C66.8979 17.8481 66.571 17.741 66.3384 17.5268C66.1057 17.3127 65.9746 17.0394 65.9451 16.707H64.5935C64.5935 17.1502 64.7116 17.5379 64.948 17.8703C65.1843 18.2027 65.5093 18.4593 65.9229 18.6403C66.3365 18.8212 66.8019 18.9117 67.3189 18.9117ZM73.9083 18.9339C74.4918 18.9339 75.0254 18.8028 75.5092 18.5406C75.9929 18.2784 76.3752 17.9072 76.6558 17.4271C76.9365 16.947 77.0768 16.3968 77.0768 15.7764C77.0768 15.156 76.9402 14.6057 76.6669 14.1256C76.3936 13.6455 76.0206 13.2762 75.5479 13.0177C75.0752 12.7592 74.5471 12.63 73.9637 12.63C73.3802 12.63 72.8521 12.7592 72.3794 13.0177C71.9067 13.2762 71.5337 13.6455 71.2604 14.1256C70.9871 14.6057 70.8505 15.156 70.8505 15.7764C70.8505 16.4042 70.9834 16.9563 71.2493 17.4327C71.5152 17.9091 71.8808 18.2784 72.3461 18.5406C72.8115 18.8028 73.3322 18.9339 73.9083 18.9339ZM73.9083 17.8371C73.3986 17.8371 72.9758 17.6579 72.6397 17.2997C72.3037 16.9415 72.1356 16.4337 72.1356 15.7764C72.1356 15.3332 72.2169 14.9584 72.3794 14.6519C72.5419 14.3453 72.7616 14.1145 73.0386 13.9594C73.3155 13.8043 73.6165 13.7268 73.9415 13.7268C74.2665 13.7268 74.5693 13.8043 74.85 13.9594C75.1306 14.1145 75.3559 14.3453 75.5258 14.6519C75.6957 14.9584 75.7806 15.3332 75.7806 15.7764C75.7806 16.2195 75.692 16.5962 75.5147 16.9064C75.3375 17.2166 75.1066 17.4493 74.8223 17.6044C74.5379 17.7595 74.2332 17.8371 73.9083 17.8371ZM80.686 18.9339C81.4098 18.9339 82.0155 18.7511 82.5029 18.3855C82.9904 18.0199 83.3228 17.5268 83.5001 16.9064H82.1373C81.901 17.549 81.4172 17.8703 80.686 17.8703C80.169 17.8703 79.7572 17.6856 79.4507 17.3163C79.1442 16.947 78.9909 16.4337 78.9909 15.7764C78.9909 15.119 79.1442 14.6075 79.4507 14.2419C79.7572 13.8763 80.169 13.6935 80.686 13.6935C81.0553 13.6935 81.3618 13.7785 81.6056 13.9484C81.8493 14.1182 82.0266 14.3546 82.1373 14.6574H83.5001C83.3302 14.0074 83.0033 13.507 82.5196 13.1562C82.0358 12.8054 81.4246 12.63 80.686 12.63C80.1025 12.63 79.5855 12.7592 79.135 13.0177C78.6844 13.2762 78.3317 13.6437 78.0769 14.1201C77.8221 14.5965 77.6947 15.1486 77.6947 15.7764C77.6947 16.4042 77.8221 16.9563 78.0769 17.4327C78.3317 17.9091 78.6844 18.2784 79.135 18.5406C79.5855 18.8028 80.1025 18.9339 80.686 18.9339ZM85.1926 11.9209C85.4141 11.9209 85.6025 11.8434 85.7576 11.6883C85.9127 11.5332 85.9902 11.3411 85.9902 11.1122C85.9902 10.8832 85.9127 10.6912 85.7576 10.536C85.6025 10.3809 85.4141 10.3034 85.1926 10.3034C84.9636 10.3034 84.7716 10.3809 84.6165 10.536C84.4614 10.6912 84.3838 10.8832 84.3838 11.1122C84.3838 11.3411 84.4614 11.5332 84.6165 11.6883C84.7716 11.8434 84.9636 11.9209 85.1926 11.9209ZM85.813 18.8342V12.7297H84.55V18.8342H85.813ZM89.6991 18.9339C90.1718 18.9339 90.5928 18.8378 90.9621 18.6458C91.3314 18.4538 91.6232 18.2137 91.8374 17.9257V18.8342H93.1114V12.7297H91.8374V13.616C91.6232 13.3353 91.337 13.1008 90.9787 12.9125C90.6205 12.7241 90.2014 12.63 89.7213 12.63C89.1895 12.63 88.7039 12.7611 88.2644 13.0233C87.8249 13.2855 87.4778 13.6529 87.223 14.1256C86.9682 14.5983 86.8408 15.1412 86.8408 15.7542C86.8408 16.3673 86.9682 16.9157 87.223 17.3994C87.4778 17.8832 87.8231 18.2599 88.2589 18.5295C88.6946 18.7991 89.1747 18.9339 89.6991 18.9339ZM89.9872 17.8371C89.6696 17.8371 89.3686 17.754 89.0842 17.5878C88.7999 17.4216 88.5709 17.1797 88.3974 16.8621C88.2238 16.5445 88.137 16.1752 88.137 15.7542C88.137 15.3332 88.2238 14.9695 88.3974 14.6629C88.5709 14.3564 88.798 14.1238 89.0787 13.965C89.3594 13.8062 89.6622 13.7268 89.9872 13.7268C90.3122 13.7268 90.615 13.808 90.8956 13.9705C91.1763 14.133 91.4034 14.3694 91.577 14.6796C91.7506 14.9898 91.8374 15.3554 91.8374 15.7764C91.8374 16.1974 91.7506 16.5648 91.577 16.8787C91.4034 17.1926 91.1763 17.4308 90.8956 17.5933C90.615 17.7558 90.3122 17.8371 89.9872 17.8371ZM95.8232 18.8342V10.6358H94.5602V18.8342H95.8232ZM98.535 18.8342V15.4662H102.158V18.8342H103.421V11.1343H102.158V14.4358H98.535V11.1343H97.272V18.8342H98.535ZM107.517 18.9339C108.101 18.9339 108.635 18.8028 109.118 18.5406C109.602 18.2784 109.984 17.9072 110.265 17.4271C110.546 16.947 110.686 16.3968 110.686 15.7764C110.686 15.156 110.549 14.6057 110.276 14.1256C110.003 13.6455 109.63 13.2762 109.157 13.0177C108.684 12.7592 108.156 12.63 107.573 12.63C106.989 12.63 106.461 12.7592 105.989 13.0177C105.516 13.2762 105.143 13.6455 104.87 14.1256C104.596 14.6057 104.46 15.156 104.46 15.7764C104.46 16.4042 104.593 16.9563 104.858 17.4327C105.124 17.9091 105.49 18.2784 105.955 18.5406C106.421 18.8028 106.941 18.9339 107.517 18.9339ZM107.517 17.8371C107.008 17.8371 106.585 17.6579 106.249 17.2997C105.913 16.9415 105.745 16.4337 105.745 15.7764C105.745 15.3332 105.826 14.9584 105.989 14.6519C106.151 14.3453 106.371 14.1145 106.648 13.9594C106.925 13.8043 107.226 13.7268 107.551 13.7268C107.876 13.7268 108.178 13.8043 108.459 13.9594C108.74 14.1145 108.965 14.3453 109.135 14.6519C109.305 14.9584 109.39 15.3332 109.39 15.7764C109.39 16.2195 109.301 16.5962 109.124 16.9064C108.947 17.2166 108.716 17.4493 108.431 17.6044C108.147 17.7595 107.842 17.8371 107.517 17.8371ZM114.184 18.9228C114.546 18.9228 114.888 18.8508 115.209 18.7067C115.53 18.5627 115.791 18.3651 115.99 18.114V18.8342H117.253V12.7297H115.99V16.1309C115.99 16.6775 115.852 17.0966 115.575 17.3884C115.298 17.6801 114.923 17.826 114.45 17.826C113.978 17.826 113.605 17.6801 113.331 17.3884C113.058 17.0966 112.921 16.6775 112.921 16.1309V12.7297H111.669V16.3192C111.669 16.8732 111.778 17.3459 111.996 17.7373C112.214 18.1288 112.513 18.4242 112.894 18.6237C113.274 18.8231 113.704 18.9228 114.184 18.9228ZM120.918 18.9339C121.391 18.9339 121.802 18.8563 122.153 18.7012C122.504 18.5461 122.775 18.3319 122.967 18.0586C123.159 17.7854 123.255 17.4751 123.255 17.128C123.248 16.7365 123.141 16.4226 122.934 16.1863C122.727 15.9499 122.482 15.7708 122.197 15.649C121.913 15.5271 121.549 15.4071 121.106 15.2889C120.774 15.1929 120.523 15.1135 120.353 15.0507C120.183 14.9879 120.039 14.9011 119.921 14.7904C119.803 14.6796 119.743 14.5429 119.743 14.3804C119.743 14.1736 119.832 14.0074 120.009 13.8819C120.187 13.7563 120.441 13.6935 120.774 13.6935C121.114 13.6935 121.383 13.7748 121.583 13.9373C121.782 14.0998 121.893 14.3177 121.915 14.5909H123.178C123.148 13.9853 122.921 13.507 122.497 13.1562C122.072 12.8054 121.512 12.63 120.818 12.63C120.353 12.63 119.941 12.7075 119.583 12.8626C119.225 13.0177 118.949 13.2301 118.757 13.4997C118.565 13.7692 118.469 14.0665 118.469 14.3915C118.469 14.7904 118.575 15.1116 118.785 15.3554C118.996 15.5991 119.245 15.7801 119.533 15.8982C119.821 16.0164 120.194 16.1383 120.652 16.2638C121.125 16.3968 121.47 16.5187 121.688 16.6295C121.906 16.7402 122.015 16.9101 122.015 17.1391C122.015 17.3533 121.917 17.5287 121.721 17.6653C121.525 17.802 121.25 17.8703 120.896 17.8703C120.556 17.8703 120.273 17.7835 120.048 17.6099C119.823 17.4364 119.699 17.2203 119.677 16.9618H118.37C118.384 17.3311 118.503 17.6653 118.724 17.9645C118.946 18.2636 119.247 18.4999 119.627 18.6735C120.007 18.8471 120.438 18.9339 120.918 18.9339ZM127.031 18.9339C127.747 18.9339 128.347 18.7548 128.831 18.3965C129.315 18.0383 129.649 17.5785 129.834 17.0172H128.471C128.19 17.5859 127.71 17.8703 127.031 17.8703C126.558 17.8703 126.159 17.7226 125.834 17.4271C125.509 17.1317 125.328 16.7402 125.291 16.2528H129.956C129.985 16.0681 130 15.8613 130 15.6323C130 15.0415 129.874 14.5189 129.623 14.0647C129.372 13.6104 129.021 13.2578 128.571 13.0066C128.12 12.7555 127.607 12.63 127.031 12.63C126.433 12.63 125.903 12.7592 125.441 13.0177C124.979 13.2762 124.621 13.6437 124.366 14.1201C124.112 14.5965 123.984 15.1486 123.984 15.7764C123.984 16.4042 124.115 16.9563 124.377 17.4327C124.64 17.9091 125.002 18.2784 125.463 18.5406C125.925 18.8028 126.447 18.9339 127.031 18.9339ZM128.682 15.2335H125.302C125.362 14.7608 125.546 14.386 125.856 14.109C126.167 13.832 126.54 13.6935 126.975 13.6935C127.455 13.6935 127.858 13.8339 128.183 14.1145C128.508 14.3952 128.674 14.7682 128.682 15.2335Z" fill="#575757"/>
<path d="M29.5164 0V0.269207L29.5441 0.296818L29.5164 0.324429V3.47899L29.5441 3.5066L29.5164 3.53421V29.5438H0V0H29.5164ZM7.17817 26.6032H0.270221V29.2746H7.17817V26.6032ZM20.0587 24.6635H18.5136V29.2746H20.0587V24.6635ZM9.19443 24.6635H7.44839V29.2746H9.19443V24.6635ZM22.0057 24.6635H20.3289V29.2746H22.0057V24.6635ZM29.2531 26.6032H22.2759V29.2746H29.2531V26.6032ZM11.0028 24.6635H9.45772V29.2746H11.0028V24.6635ZM16.435 24.6635H14.8968V29.2746H16.4419V24.6635H16.435ZM12.8112 24.6635H11.2661V29.2746H12.8112V24.6635ZM18.2503 24.6635H16.7052V29.2746H18.2503V24.6635ZM14.6266 24.6635H13.0814V29.2746H14.6266V24.6635ZM7.17817 24.6635H0.270221V26.334H7.17817V24.6635ZM29.2531 24.6635H22.2759V26.334H29.2531V24.6635ZM7.17817 22.7239H0.270221V24.3943H7.17817V22.7239ZM14.7582 13.1497L7.55925 24.3943H21.8948L14.7582 13.1497ZM29.2531 22.7239H22.2759V24.3943H29.2531V22.7239ZM14.5157 13.0324H7.44839V24.0699L14.5157 13.0324ZM22.0057 13.0324H15.0007L22.0057 24.0699V13.0324ZM29.2531 20.7842H22.2759V22.4547H29.2531V20.7842ZM7.17817 20.7842H0.270221V22.4547H7.17817V20.7842ZM7.17817 18.8514H0.270221V20.5219H7.17817V18.8514ZM29.2531 18.8514H22.2759V20.5219H29.2531V18.8514ZM7.17817 16.9117H0.270221V18.5822H7.17817V16.9117ZM29.2531 16.9117H22.2759V18.5822H29.2531V16.9117ZM7.17817 14.9721H0.270221V16.6425H7.17817V14.9721ZM29.2531 14.9721H22.2759V16.6425H29.2531V14.9721ZM7.17817 13.0324H0.270221V14.7029H7.17817V13.0324ZM29.2531 13.0324H22.2759V14.7029H29.2531V13.0324ZM7.17817 6.93036L0.429581 12.7701H7.17817V6.93036ZM22.2759 6.87514V12.7701H29.0938L22.2759 6.87514ZM14.7582 0.379651L7.44839 6.69567V12.7632H22.0057V6.64045L14.7582 0.379651ZM29.2531 9.25659L27.3616 10.9132L29.2531 12.5492V9.25659ZM0.270221 9.19446V12.5492L2.19641 10.8787L0.270221 9.19446ZM29.2531 3.77581L24.2714 8.24189L27.1606 10.7338L29.26 8.89765V6.58523L25.865 9.58792L25.6848 9.38774L29.26 6.22628V3.77581H29.2531ZM0.270221 6.5231V8.88384L0.291007 8.85623L2.40427 10.7062L3.7138 9.57412L0.270221 6.5231ZM14.7582 4.54201C16.3172 4.54201 17.5782 5.79831 17.5782 7.35143C17.5782 8.90455 16.3172 10.1609 14.7582 10.1609C13.1992 10.1609 11.9382 8.90455 11.9382 7.35143C11.9382 5.79831 13.2062 4.54201 14.7582 4.54201ZM14.7582 4.81122C13.3517 4.81122 12.2084 5.95017 12.2084 7.35143C12.2084 8.75269 13.3517 9.89164 14.7582 9.89164C16.1647 9.89164 17.308 8.75269 17.308 7.35143C17.308 5.95017 16.1647 4.81122 14.7582 4.81122ZM0.270221 3.70678V6.20557L0.291007 6.17796L3.91473 9.38774L3.88702 9.42226L5.29355 8.20737L0.270221 3.70678ZM29.2531 0.559123L22.3937 6.62664L24.0635 8.06932L29.2531 3.41686V0.559123ZM0.270221 0.496998V3.34783L5.49449 8.0348L7.16431 6.59213L0.270221 0.496998ZM29.1769 0.269207H26.149L20.5991 5.07352L22.1927 6.44717L29.1769 0.269207ZM3.43665 0.269207H0.408795L7.36524 6.41956L8.95192 5.03901L3.43665 0.269207ZM25.7402 0.269207H22.8717L22.8995 0.303721L19.0887 3.77581L20.3913 4.90095L25.7402 0.269207ZM6.71394 0.269207H3.84545L9.15286 4.86644L10.4624 3.74129L6.68623 0.296818L6.71394 0.269207ZM22.5461 0.269207H19.7192L17.5436 2.43667L18.8877 3.59633L22.5461 0.269207ZM9.87344 0.269207H7.04652L10.6633 3.56182L12.0075 2.39525L9.87344 0.269207ZM19.3381 0.269207H15.0423L17.3426 2.2572L19.3381 0.269207ZM14.4741 0.269207H10.2476L12.2084 2.22269L14.4741 0.269207Z" fill="#575757"/>
</svg>
