<svg xmlns="http://www.w3.org/2000/svg" version="1.1" xmlns:xlink="http://www.w3.org/1999/xlink" width="1000" height="1000"><g clip-path="url(#SvgjsClipPath1052)"><rect width="1000" height="1000" fill="#ffffff"></rect><g transform="matrix(1.2360939431396787,0,0,1.2360939431396787,0,0)"><svg xmlns="http://www.w3.org/2000/svg" version="1.1" xmlns:xlink="http://www.w3.org/1999/xlink" width="809" height="809"><svg width="809" height="809" viewBox="0 0 809 809" fill="none" xmlns="http://www.w3.org/2000/svg">
<path d="M808.25 0V7.37173L809.009 8.1278L808.25 8.88388V95.2654L809.009 96.0215L808.25 96.7776V809H0V0H808.25ZM196.56 728.478H7.39948V801.628H196.56V728.478ZM549.269 675.364H506.959V801.628H549.269V675.364ZM251.772 675.364H203.96V801.628H251.772V675.364ZM602.583 675.364H556.668V801.628H602.583V675.364ZM801.041 728.478H609.982V801.628H801.041V728.478ZM301.292 675.364H258.982V801.628H301.292V675.364ZM450.04 675.364H407.92V801.628H450.23V675.364H450.04ZM350.811 675.364H308.501V801.628H350.811V675.364ZM499.749 675.364H457.439V801.628H499.749V675.364ZM400.52 675.364H358.211V801.628H400.52V675.364ZM196.56 675.364H7.39948V721.106H196.56V675.364ZM801.041 675.364H609.982V721.106H801.041V675.364ZM196.56 622.25H7.39948V667.992H196.56V622.25ZM404.125 360.081L206.996 667.992H599.547L404.125 360.081ZM801.041 622.25H609.982V667.992H801.041V622.25ZM397.485 356.867H203.96V659.108L397.485 356.867ZM602.583 356.867H410.766L602.583 659.108V356.867ZM801.041 569.135H609.982V614.878H801.041V569.135ZM196.56 569.135H7.39948V614.878H196.56V569.135ZM196.56 516.21H7.39948V561.953H196.56V516.21ZM801.041 516.21H609.982V561.953H801.041V516.21ZM196.56 463.096H7.39948V508.838H196.56V463.096ZM801.041 463.096H609.982V508.838H801.041V463.096ZM196.56 409.982H7.39948V455.724H196.56V409.982ZM801.041 409.982H609.982V455.724H801.041V409.982ZM196.56 356.867H7.39948V402.61H196.56V356.867ZM801.041 356.867H609.982V402.61H801.041V356.867ZM196.56 189.775L11.7633 349.685H196.56V189.775ZM609.982 188.263V349.685H796.677L609.982 188.263ZM404.125 10.396L203.96 183.348V349.496H602.583V181.836L404.125 10.396ZM801.041 253.474L749.244 298.839L801.041 343.636V253.474ZM7.39948 251.773V343.636L60.1445 297.893L7.39948 251.773ZM801.041 103.393L664.625 225.688L743.742 293.924L801.23 243.645V180.324L708.263 262.547L703.33 257.065L801.23 170.495V103.393H801.041ZM7.39948 178.623V243.267L7.96867 242.511L65.8364 293.168L101.695 262.169L7.39948 178.623ZM404.125 124.374C446.815 124.374 481.345 158.776 481.345 201.305C481.345 243.834 446.815 278.236 404.125 278.236C361.436 278.236 326.905 243.834 326.905 201.305C326.905 158.776 361.626 124.374 404.125 124.374ZM404.125 131.746C365.61 131.746 334.305 162.934 334.305 201.305C334.305 239.676 365.61 270.864 404.125 270.864C442.64 270.864 473.946 239.676 473.946 201.305C473.946 162.934 442.64 131.746 404.125 131.746ZM7.39948 101.503V169.928L7.96867 169.172L107.198 257.065L106.439 258.011L144.954 224.743L7.39948 101.503ZM801.041 15.3105L613.208 181.458L658.933 220.963L801.041 93.5643V15.3105ZM7.39948 13.6093V91.6741L150.456 220.018L196.181 180.513L7.39948 13.6093ZM798.954 7.37173H716.042L564.068 138.929L607.706 176.543L798.954 7.37173ZM94.1062 7.37173H11.1941L201.683 175.787L245.131 137.984L94.1062 7.37173ZM704.848 7.37173H626.299L627.058 8.31682L522.707 103.393L558.376 134.203L704.848 7.37173ZM183.849 7.37173H105.3L250.634 133.258L286.493 102.448L183.09 8.1278L183.849 7.37173ZM617.382 7.37173H539.972L480.397 66.7236L517.204 98.4787L617.382 7.37173ZM270.365 7.37173H192.956L291.995 97.5337L328.802 65.5895L270.365 7.37173ZM529.537 7.37173H411.904L474.895 61.8091L529.537 7.37173ZM396.346 7.37173H280.611L334.305 60.864L396.346 7.37173Z" fill="#575757"></path>
</svg></svg></g></g><defs><clipPath id="SvgjsClipPath1052"><rect width="1000" height="1000" x="0" y="0" rx="0" ry="0"></rect></clipPath></defs></svg>